<?xml version="1.0" encoding="UTF-8"?>
<!DOCTYPE svg PUBLIC "-//W3C//DTD SVG 1.1//EN" "http://www.w3.org/Graphics/SVG/1.1/DTD/svg11.dtd">
<svg xmlns="http://www.w3.org/2000/svg" version="1.1" width="267px" height="267px" style="shape-rendering:geometricPrecision; text-rendering:geometricPrecision; image-rendering:optimizeQuality; fill-rule:evenodd; clip-rule:evenodd" xmlns:xlink="http://www.w3.org/1999/xlink">
<g><path style="opacity:0.984" fill="#fefffe" d="M 159.5,17.5 C 161.604,17.2011 163.604,17.5344 165.5,18.5C 159.956,24.5632 159.122,31.2299 163,38.5C 178.154,56.1232 190.82,75.4566 201,96.5C 202.633,105.7 198.8,110.7 189.5,111.5C 172.457,106.538 155.457,101.704 138.5,97C 146.599,107.102 155.432,116.602 165,125.5C 180.994,144.152 186.327,165.485 181,189.5C 177.733,195.302 172.733,197.968 166,197.5C 140.846,196.553 115.679,196.219 90.5,196.5C 92.9896,187.061 92.4896,177.728 89,168.5C 83.4248,157.01 77.0914,146.01 70,135.5C 56.3139,102.899 59.3139,71.8993 79,42.5C 86.5263,32.6378 96.3596,26.4711 108.5,24C 125.613,21.5594 142.613,19.3927 159.5,17.5 Z"/></g>
<g><path style="opacity:0.936" fill="#fefffe" d="M 89.5,201.5 C 120.517,201.149 151.517,201.649 182.5,203C 188.349,205.52 191.015,210.02 190.5,216.5C 152.167,216.5 113.833,216.5 75.5,216.5C 75.4072,206.929 80.0739,201.929 89.5,201.5 Z"/></g>
<g><path style="opacity:0.972" fill="#fefffe" d="M 72.5,222.5 C 112.501,222.333 152.501,222.5 192.5,223C 200.787,223.956 205.954,228.456 208,236.5C 208.499,240.486 208.666,244.486 208.5,248.5C 158.167,248.5 107.833,248.5 57.5,248.5C 56.7179,241.451 57.8846,234.784 61,228.5C 64.3722,225.444 68.2055,223.444 72.5,222.5 Z"/></g>
</svg>
