<?xml version="1.0" encoding="UTF-8"?>
<!DOCTYPE svg PUBLIC "-//W3C//DTD SVG 1.1//EN" "http://www.w3.org/Graphics/SVG/1.1/DTD/svg11.dtd">
<svg xmlns="http://www.w3.org/2000/svg" version="1.1" width="267px" height="267px" style="shape-rendering:geometricPrecision; text-rendering:geometricPrecision; image-rendering:optimizeQuality; fill-rule:evenodd; clip-rule:evenodd" xmlns:xlink="http://www.w3.org/1999/xlink">
<g><path style="opacity:0.906" fill="#fefffe" d="M 130.5,16.5 C 133.157,16.162 135.49,16.8287 137.5,18.5C 143.22,25.5533 148.553,32.8866 153.5,40.5C 139.804,40.5179 126.138,40.5179 112.5,40.5C 118.14,32.1986 124.14,24.1986 130.5,16.5 Z"/></g>
<g><path style="opacity:0.949" fill="#fefffe" d="M 108.5,47.5 C 116.782,49.3195 125.115,50.9862 133.5,52.5C 141.206,50.8196 148.873,49.3196 156.5,48C 157.574,48.7387 158.241,49.7387 158.5,51C 155.667,59.5 152.833,68 150,76.5C 149.167,77.3333 148.333,78.1667 147.5,79C 137.045,81.2657 126.711,80.9324 116.5,78C 112.582,69.2481 109.248,60.2481 106.5,51C 106.978,49.6974 107.645,48.5307 108.5,47.5 Z"/></g>
<g><path style="opacity:0.93" fill="#fefffe" d="M 119.5,82.5 C 130.877,82.1744 142.21,82.6744 153.5,84C 160.266,88.9966 159.933,93.6632 152.5,98C 149.318,98.4069 146.151,98.9069 143,99.5C 136.005,98.2104 129.005,98.2104 122,99.5C 114.745,99.9599 109.579,96.9599 106.5,90.5C 109.416,85.2013 113.75,82.5346 119.5,82.5 Z"/></g>
<g><path style="opacity:0.971" fill="#fefffe" d="M 118.5,102.5 C 128.167,102.5 137.833,102.5 147.5,102.5C 146.244,140.371 151.244,177.371 162.5,213.5C 142.833,213.5 123.167,213.5 103.5,213.5C 114.48,177.33 119.48,140.33 118.5,102.5 Z"/></g>
<g><path style="opacity:0.877" fill="#fefffe" d="M 99.5,217.5 C 121.503,217.333 143.503,217.5 165.5,218C 170.435,219.691 172.435,223.191 171.5,228.5C 145.5,228.5 119.5,228.5 93.5,228.5C 92.6921,223.103 94.6921,219.437 99.5,217.5 Z"/></g>
<g><path style="opacity:0.942" fill="#fefffe" d="M 89.5,231.5 C 118.502,231.333 147.502,231.5 176.5,232C 183.572,235.653 186.239,241.486 184.5,249.5C 149.833,249.5 115.167,249.5 80.5,249.5C 79.7362,241.375 82.7362,235.375 89.5,231.5 Z"/></g>
</svg>
