<?xml version="1.0" encoding="UTF-8"?>
<!DOCTYPE svg PUBLIC "-//W3C//DTD SVG 1.1//EN" "http://www.w3.org/Graphics/SVG/1.1/DTD/svg11.dtd">
<svg xmlns="http://www.w3.org/2000/svg" version="1.1" width="267px" height="267px" style="shape-rendering:geometricPrecision; text-rendering:geometricPrecision; image-rendering:optimizeQuality; fill-rule:evenodd; clip-rule:evenodd" xmlns:xlink="http://www.w3.org/1999/xlink">
<g><path style="opacity:0.945" fill="#fefffe" d="M 129.5,16.5 C 132.602,16.154 135.435,16.8207 138,18.5C 140.594,24.2089 141.927,30.2089 142,36.5C 146.072,41.132 147.405,46.4653 146,52.5C 144.257,56.9838 142.257,61.3171 140,65.5C 139.333,68.5 139.333,71.5 140,74.5C 145.431,68.6414 149.598,61.9748 152.5,54.5C 156.655,61.4655 159.322,68.9655 160.5,77C 160.5,81.3333 158.5,84.3333 154.5,86C 139.88,87.5799 125.213,87.9133 110.5,87C 107.187,85.4337 105.521,82.7671 105.5,79C 106.123,75.5187 106.623,72.0187 107,68.5C 111.896,57.9385 117.229,47.6051 123,37.5C 123.615,32.0941 124.615,26.7608 126,21.5C 126.697,19.4156 127.864,17.7489 129.5,16.5 Z"/></g>
<g><path style="opacity:0.902" fill="#fefffe" d="M 116.5,90.5 C 130.212,90.1155 143.879,90.6155 157.5,92C 162.701,95.9124 162.701,99.9124 157.5,104C 142.88,105.58 128.213,105.913 113.5,105C 103.475,103.129 101.808,98.7958 108.5,92C 111.365,91.8171 114.031,91.3171 116.5,90.5 Z"/></g>
<g><path style="opacity:0.967" fill="#fefffe" d="M 116.5,109.5 C 127.167,109.5 137.833,109.5 148.5,109.5C 147.795,143.605 153.462,176.605 165.5,208.5C 143.844,209.5 122.177,209.833 100.5,209.5C 112.105,177.204 117.438,143.87 116.5,109.5 Z"/></g>
<g><path style="opacity:0.941" fill="#fefffe" d="M 94.5,213.5 C 119.836,213.333 145.169,213.5 170.5,214C 174.957,216.079 176.957,219.579 176.5,224.5C 147.167,224.5 117.833,224.5 88.5,224.5C 88.306,219.515 90.306,215.849 94.5,213.5 Z"/></g>
<g><path style="opacity:0.961" fill="#fefffe" d="M 90.5,228.5 C 120.86,228.073 151.194,228.573 181.5,230C 184.913,231.077 187.413,233.244 189,236.5C 190.266,240.395 190.766,244.395 190.5,248.5C 151.833,248.5 113.167,248.5 74.5,248.5C 73.273,236.189 78.6063,229.522 90.5,228.5 Z"/></g>
</svg>
