<?xml version="1.0" encoding="UTF-8"?>
<!DOCTYPE svg PUBLIC "-//W3C//DTD SVG 1.1//EN" "http://www.w3.org/Graphics/SVG/1.1/DTD/svg11.dtd">
<svg xmlns="http://www.w3.org/2000/svg" version="1.1" width="267px" height="267px" style="shape-rendering:geometricPrecision; text-rendering:geometricPrecision; image-rendering:optimizeQuality; fill-rule:evenodd; clip-rule:evenodd" xmlns:xlink="http://www.w3.org/1999/xlink">
<g><path style="opacity:0.975" fill="#fefffe" d="M 127.5,17.5 C 159.124,18.6241 173.624,34.9574 171,66.5C 169.497,73.8344 164.997,77.8344 157.5,78.5C 141.004,77.1739 124.504,77.1739 108,78.5C 100.605,78.4381 96.2721,74.7714 95,67.5C 91.031,41.0854 101.864,24.4187 127.5,17.5 Z"/></g>
<g><path style="opacity:0.942" fill="#fefffe" d="M 109.5,82.5 C 125.17,82.3334 140.837,82.5001 156.5,83C 158.608,83.3599 160.608,84.0266 162.5,85C 165.233,87.7331 167.9,90.3997 170.5,93C 167.707,97.7944 163.707,101.128 158.5,103C 141.167,103.667 123.833,103.667 106.5,103C 101.465,101.444 97.7985,98.2771 95.5,93.5C 99.0916,88.2167 103.758,84.5501 109.5,82.5 Z"/></g>
<g><path style="opacity:0.972" fill="#fefffe" d="M 114.5,109.5 C 126.833,109.5 139.167,109.5 151.5,109.5C 156.962,138.142 162.295,166.809 167.5,195.5C 144.5,195.5 121.5,195.5 98.5,195.5C 103.619,166.786 108.952,138.119 114.5,109.5 Z"/></g>
<g><path style="opacity:0.987" fill="#fefffe" d="M 82.5,201.5 C 115.835,201.333 149.168,201.5 182.5,202C 188.597,204.343 191.597,208.843 191.5,215.5C 152.5,215.5 113.5,215.5 74.5,215.5C 74.6077,209.275 77.2744,204.609 82.5,201.5 Z"/></g>
<g><path style="opacity:0.973" fill="#fefffe" d="M 75.5,221.5 C 115.868,221.035 156.201,221.535 196.5,223C 203.739,224.638 207.906,229.138 209,236.5C 209.499,240.152 209.665,243.818 209.5,247.5C 158.167,247.5 106.833,247.5 55.5,247.5C 54.1049,232.183 60.7716,223.516 75.5,221.5 Z"/></g>
</svg>
