<?xml version="1.0" encoding="UTF-8"?>
<!DOCTYPE svg PUBLIC "-//W3C//DTD SVG 1.1//EN" "http://www.w3.org/Graphics/SVG/1.1/DTD/svg11.dtd">
<svg xmlns="http://www.w3.org/2000/svg" version="1.1" width="267px" height="267px" style="shape-rendering:geometricPrecision; text-rendering:geometricPrecision; image-rendering:optimizeQuality; fill-rule:evenodd; clip-rule:evenodd" xmlns:xlink="http://www.w3.org/1999/xlink">
<g><path style="opacity:0.885" fill="#fefffe" d="M 130.5,17.5 C 132.527,17.3379 134.527,17.5045 136.5,18C 137.958,20.46 139.791,22.6266 142,24.5C 142.667,26.1667 142.667,27.8333 142,29.5C 140.104,30.6796 138.604,32.1796 137.5,34C 139.069,38.2065 140.735,42.3732 142.5,46.5C 136.202,47.4963 129.868,47.8297 123.5,47.5C 124.664,42.8427 126.331,38.3427 128.5,34C 126.757,31.8222 125.09,29.6555 123.5,27.5C 125.824,24.1733 128.157,20.8399 130.5,17.5 Z"/></g>
<g><path style="opacity:0.943" fill="#fefffe" d="M 107.5,49.5 C 124.513,49.1672 141.513,49.5005 158.5,50.5C 155.295,60.2812 151.795,69.9479 148,79.5C 147.5,80 147,80.5 146.5,81C 137.5,81.6667 128.5,81.6667 119.5,81C 118.667,80.1667 117.833,79.3333 117,78.5C 113.327,68.9815 110.16,59.3148 107.5,49.5 Z"/></g>
<g><path style="opacity:0.913" fill="#fefffe" d="M 114.5,84.5 C 126.838,84.3335 139.171,84.5001 151.5,85C 153.329,85.2735 154.829,86.1068 156,87.5C 156.667,90.8333 156.667,94.1667 156,97.5C 155.097,98.7014 153.931,99.5348 152.5,100C 139.167,100.667 125.833,100.667 112.5,100C 106.731,93.8002 107.398,88.6335 114.5,84.5 Z"/></g>
<g><path style="opacity:0.969" fill="#fefffe" d="M 119.5,104.5 C 128.5,104.5 137.5,104.5 146.5,104.5C 145.276,142.596 149.943,179.93 160.5,216.5C 142.164,216.667 123.83,216.5 105.5,216C 116.413,179.616 121.08,142.449 119.5,104.5 Z"/></g>
<g><path style="opacity:0.897" fill="#fefffe" d="M 103.5,219.5 C 122.503,219.333 141.503,219.5 160.5,220C 166.546,220.237 169.212,223.403 168.5,229.5C 144.5,229.5 120.5,229.5 96.5,229.5C 96.4104,224.311 98.7438,220.978 103.5,219.5 Z"/></g>
<g><path style="opacity:0.916" fill="#fefffe" d="M 95.5,232.5 C 120.502,232.333 145.502,232.5 170.5,233C 178.697,235.325 182.03,240.825 180.5,249.5C 148.833,249.5 117.167,249.5 85.5,249.5C 83.6859,240.473 87.0192,234.807 95.5,232.5 Z"/></g>
</svg>
