<?xml version="1.0" encoding="UTF-8"?>
<!DOCTYPE svg PUBLIC "-//W3C//DTD SVG 1.1//EN" "http://www.w3.org/Graphics/SVG/1.1/DTD/svg11.dtd">
<svg xmlns="http://www.w3.org/2000/svg" version="1.1" width="267px" height="267px" style="shape-rendering:geometricPrecision; text-rendering:geometricPrecision; image-rendering:optimizeQuality; fill-rule:evenodd; clip-rule:evenodd" xmlns:xlink="http://www.w3.org/1999/xlink">
<g><path style="opacity:0.973" fill="#fefffe" d="M 82.5,17.5 C 90.1955,17.1692 97.8622,17.5025 105.5,18.5C 106.286,23.7813 106.786,29.1146 107,34.5C 109.188,41.4572 112.522,42.1238 117,36.5C 118.062,30.8628 118.895,25.1961 119.5,19.5C 127.813,18.3349 136.147,18.1683 144.5,19C 145,19.5 145.5,20 146,20.5C 146.333,25.1667 146.667,29.8333 147,34.5C 149.992,40.5964 153.325,40.9298 157,35.5C 158.161,30.5836 158.827,25.5836 159,20.5C 159.5,20 160,19.5 160.5,19C 167.5,18.3333 174.5,18.3333 181.5,19C 182.657,34.0922 182.824,49.2588 182,64.5C 181.982,77.5612 175.482,84.2279 162.5,84.5C 141.67,81.8795 120.836,81.8795 100,84.5C 90.2372,85.3938 84.5706,81.0605 83,71.5C 82.5001,53.5031 82.3334,35.5031 82.5,17.5 Z"/></g>
<g><path style="opacity:0.978" fill="#fefffe" d="M 103.5,95.5 C 123.167,95.5 142.833,95.5 162.5,95.5C 166.833,129.5 171.167,163.5 175.5,197.5C 147.167,197.5 118.833,197.5 90.5,197.5C 94.3416,163.434 98.6749,129.434 103.5,95.5 Z"/></g>
<g><path style="opacity:0.974" fill="#fefffe" d="M 85.5,202.5 C 116.835,202.333 148.168,202.5 179.5,203C 186.085,204.98 189.085,209.48 188.5,216.5C 151.5,216.5 114.5,216.5 77.5,216.5C 76.5885,209.644 79.2552,204.977 85.5,202.5 Z"/></g>
<g><path style="opacity:0.98" fill="#fefffe" d="M 72.5,223.5 C 112.835,223.333 153.168,223.5 193.5,224C 200.784,225.618 204.951,230.118 206,237.5C 206.499,241.152 206.665,244.818 206.5,248.5C 157.5,248.5 108.5,248.5 59.5,248.5C 56.8953,236.191 61.2287,227.857 72.5,223.5 Z"/></g>
</svg>
