<?xml version="1.0" encoding="UTF-8"?>
<svg id="Calque_1" data-name="Calque 1" xmlns="http://www.w3.org/2000/svg" viewBox="0 0 64 64">
  <defs>
    <style>
      .cls-1 {
        fill: #fff;
      }
    </style>
  </defs>
  <path class="cls-1" d="M50.05,59.78H13.93c-.36-4.12,1.12-6,4.93-6.03,8.77-.08,17.55-.06,26.32.02,3.76.04,5.28,1.98,4.87,6.01Z"/>
  <path class="cls-1" d="M45.81,52.09h-27.5c-.1-2.56,1.42-3.29,3.34-3.31,6.88-.06,13.77-.03,20.65.02,1.96.02,3.41.77,3.51,3.29Z"/>
  <path class="cls-1" d="M43.36,47.5h-22.55c4.25-2.67,6.17-5.38,5.82-8.24h10.72c-.03,2.81,1.6,5.56,6.01,8.24Z"/>
  <path class="cls-1" d="M32.19,38.12c-2.78,0-5.59.23-8.33-.11-1.08-.14-1.99-1.56-2.98-2.39.9-.94,1.77-2.64,2.71-2.68,5.95-.26,11.92-.26,17.88-.05.89.03,2.56,1.78,2.42,2.4-.25,1.08-1.55,2.58-2.56,2.7-3.01.36-6.08.13-9.13.13Z"/>
  <path class="cls-1" d="M15.07,13.85c.26-.57.65-.96,1.34-.9.59.06,1.06.53,1.09,1.09.04.6-.32,1.13-.87,1.29-.58.17-1.17-.1-1.44-.64-.04-.08-.08-.16-.12-.23,0-.2,0-.41,0-.61Z"/>
  <path class="cls-1" d="M32.41,31.17c-2-.15-4-.26-6-.46-1.35-.14-2.7-.36-3.96-.94-.31-.14-.62-.33-.88-.55-.41-.33-.59-.78-.55-1.32.24-3.27-.37-6.37-1.93-9.26-.39-.73-.9-1.4-1.35-2.1-.35-.53-.16-1.13.41-1.2.22-.03.48.09.68.21,1.15.73,2.28,1.5,3.45,2.2.51.3,1.11.49,1.69.65.44.13.64-.02.72-.47.06-.34.09-.69.09-1.04,0-1.45-.33-2.86-.58-4.28-.01-.07-.03-.13-.04-.2-.05-.47.1-.77.43-.9.35-.13.67,0,.95.38.85,1.11,1.69,2.23,2.56,3.32.25.31.58.57.91.8.49.35.81.28,1.11-.25.22-.38.43-.78.53-1.2.36-1.39.68-2.79,1.02-4.19.03-.14.05-.29.1-.43.1-.32.38-.52.68-.51.33.02.57.19.64.51.13.54.2,1.09.34,1.62.32,1.22.66,2.43,1.02,3.63.09.29.3.55.48.8.18.25.44.3.69.14.39-.26.81-.52,1.1-.88.89-1.09,1.73-2.22,2.6-3.33.14-.18.33-.37.53-.43.53-.15.97.31.87.87-.13.75-.33,1.5-.41,2.26-.11.98-.14,1.97-.19,2.96,0,.16.05.33.1.49.1.29.29.39.6.35.93-.15,1.71-.61,2.49-1.09.92-.57,1.8-1.2,2.71-1.79.19-.12.44-.23.65-.22.52.03.79.59.54,1.06-.07.13-.16.25-.25.36-1.67,2.24-2.64,4.78-3.03,7.53-.17,1.17-.22,2.36-.09,3.54.08.72-.26,1.24-.84,1.62-.89.58-1.9.82-2.91,1.01-2.54.48-5.1.63-7.67.63,0,.03,0,.06,0,.1ZM23.79,28.09c5.76,1.23,11.53,1.23,17.29,0-3.46-1.31-13.54-1.36-17.29,0Z"/>
  <path class="cls-1" d="M34.6,6.38c0,1.2-.97,2.18-2.16,2.18-1.18,0-2.18-.99-2.19-2.17,0-1.19.97-2.17,2.17-2.17,1.2,0,2.17.96,2.18,2.16Z"/>
  <path class="cls-1" d="M41.45,7.21c1,0,1.8.8,1.8,1.8,0,1-.8,1.8-1.8,1.81-1.01,0-1.84-.82-1.82-1.82.02-1.01.81-1.79,1.82-1.79Z"/>
  <path class="cls-1" d="M23.26,7.21c1,0,1.81.79,1.83,1.79.01,1-.81,1.83-1.83,1.82-1,0-1.81-.82-1.81-1.81,0-.99.81-1.8,1.81-1.8Z"/>
  <path class="cls-1" d="M47.31,14.17c0-.68.54-1.22,1.22-1.22.67,0,1.22.55,1.22,1.22,0,.68-.55,1.23-1.22,1.23-.67,0-1.22-.55-1.22-1.23Z"/>
</svg>