<?xml version="1.0" encoding="UTF-8"?>
<svg id="Calque_1" data-name="Calque 1" xmlns="http://www.w3.org/2000/svg" viewBox="0 0 64 64">
  <defs>
    <style>
      .cls-1 {
        fill: #fff;
      }
    </style>
  </defs>
  <path class="cls-1" d="M49.28,59.29H14.71c-.34-3.94,1.07-5.74,4.72-5.78,8.4-.08,16.8-.06,25.2.02,3.6.04,5.05,1.89,4.66,5.76Z"/>
  <path class="cls-1" d="M45.16,51.93h-26.32c-.1-2.45,1.36-3.15,3.2-3.17,6.59-.05,13.18-.03,19.77.02,1.87.01,3.27.74,3.36,3.15Z"/>
  <path class="cls-1" d="M42.79,47.54h-21.58c4.07-2.55,5.91-5.15,5.57-7.89h10.26c-.03,2.69,1.53,5.33,5.75,7.89Z"/>
  <path class="cls-1" d="M39.46,19.41c.9,2.03,1.55,3.26,2.01,4.57,2,5.74.67,7.66-5.21,7.67-3.7,0-7.41-.14-11.11.04-2.54.12-3.61-1.02-3.48-3.32.1-1.74.22-3.63.95-5.16,1.66-3.43,3.8-6.62,5.53-10.01.54-1.07.35-2.49.62-3.72.34-1.49.49-3.19,1.36-4.3.47-.6,2.86-.63,3.36-.05.91,1.06,1.14,2.75,1.49,4.22.29,1.23-.13,2.94.57,3.71,2.23,2.46,1.71,4.75.33,7.24-.55,1-1.19,2.02-1.43,3.11-.31,1.4-.25,2.88-.35,4.32.95-.99,2.07-1.87,2.8-3,.88-1.37,1.43-2.94,2.54-5.32Z"/>
  <path class="cls-1" d="M31.82,38.56c-2.66,0-5.36.22-7.98-.11-1.03-.13-1.91-1.49-2.85-2.29.86-.9,1.69-2.53,2.59-2.57,5.7-.25,11.41-.25,17.11-.05.86.03,2.45,1.71,2.31,2.3-.24,1.03-1.49,2.47-2.45,2.58-2.88.34-5.82.12-8.74.13Z"/>
</svg>