<?xml version="1.0" encoding="UTF-8"?>
<svg id="Calque_1" data-name="Calque 1" xmlns="http://www.w3.org/2000/svg" viewBox="0 0 64 64">
  <defs>
    <style>
      .cls-1 {
        fill: #fff;
      }
    </style>
  </defs>
  <path class="cls-1" d="M22.28,47.16c1.16-4.58-.6-7.92-2.99-11.44-4.95-7.27-5.21-15.18-1.16-23,1.77-3.41,4.59-6.06,8.52-6.76,4.23-.75,8.54-1.02,13.39-1.56-2.76,3.21-.74,4.86,1.19,7.2,2.85,3.45,4.98,7.53,7.14,11.49,1.11,2.04-.85,4.19-3.44,3.48-3.95-1.09-7.73-2.75-12.09-3.75,1.69,1.84,3.29,3.77,5.07,5.5,4.16,4.02,6.73,8.64,6.24,14.63-.23,2.75-.78,4.56-4.41,4.31-5.68-.39-11.4-.1-17.47-.1Z"/>
  <path class="cls-1" d="M49.96,59.59H14.02c-.36-4.1,1.11-5.97,4.9-6,8.73-.08,17.46-.06,26.19.02,3.74.04,5.25,1.97,4.85,5.98Z"/>
  <path class="cls-1" d="M45.68,51.95h-27.36c-.1-2.55,1.41-3.28,3.33-3.29,6.85-.06,13.7-.03,20.55.02,1.95.02,3.4.77,3.49,3.27Z"/>
</svg>