<?xml version="1.0" encoding="UTF-8"?>
<svg id="Calque_1" xmlns="http://www.w3.org/2000/svg" viewBox="0 0 64 64">
  <defs>
    <style>
      .cls-1 {
        fill: #fff;
      }
    </style>
  </defs>
  <g>
    <path class="cls-1" d="M40.19,46.89h-16.34c1.27-6.75,2.53-13.4,3.84-20.33h8.67c1.26,6.67,2.53,13.39,3.83,20.33Z"/>
    <path class="cls-1" d="M13.62,59.52c.11-4.4,1.48-5.98,5.4-6.01,8.7-.08,17.41-.07,26.12,0,3.79.03,5.29,1.8,5.26,6.02H13.62Z"/>
    <path class="cls-1" d="M31.98,18.66c-1.78,0-3.59-.17-5.35.04-2.53.3-3.35-1.09-3.72-3.17-.67-3.81.91-7.51,4.09-9.5,3.36-2.1,6.78-2.02,10.1,0,3.12,1.9,4.63,5.81,4,9.56-.37,2.16-1.32,3.38-3.77,3.11-1.76-.19-3.56-.04-5.35-.04Z"/>
    <path class="cls-1" d="M18.2,51.81c.03-2.35,1.31-3.24,3.19-3.26,7.03-.06,14.05-.06,21.08-.03,2.01.01,3.34.92,3.43,3.29h-27.7Z"/>
    <path class="cls-1" d="M32.11,20.14c1.99,0,4.02-.26,5.94.1,1.08.2,1.96,1.43,2.93,2.19-.92.8-1.81,2.22-2.78,2.28-4.16.26-8.36.24-12.52.01-.9-.05-1.72-1.4-2.58-2.15.92-.8,1.74-2.11,2.77-2.3,2.02-.37,4.16-.11,6.25-.11v-.02Z"/>
  </g>
  <g>
    <path class="cls-1" d="M39.13,44.95h-14.22c1.11-5.87,2.2-11.66,3.34-17.69h7.55c1.09,5.8,2.2,11.65,3.34,17.69Z"/>
    <path class="cls-1" d="M16,55.95c.09-3.83,1.28-5.2,4.7-5.23,7.58-.07,15.15-.06,22.73,0,3.3.03,4.61,1.57,4.57,5.24h-32Z"/>
    <path class="cls-1" d="M31.98,20.39c-1.55,0-3.12-.15-4.65.03-2.21.26-2.92-.95-3.24-2.76-.58-3.32.79-6.54,3.56-8.26,2.92-1.83,5.9-1.76,8.79,0,2.72,1.65,4.03,5.06,3.48,8.32-.32,1.88-1.15,2.94-3.28,2.71-1.54-.16-3.1-.03-4.66-.04Z"/>
    <path class="cls-1" d="M19.98,49.24c.03-2.04,1.14-2.82,2.78-2.84,6.11-.05,12.23-.05,18.34-.02,1.75,0,2.91.8,2.99,2.86h-24.11Z"/>
    <path class="cls-1" d="M32.09,21.68c1.73,0,3.5-.23,5.17.09.94.18,1.7,1.24,2.55,1.91-.8.69-1.57,1.93-2.42,1.98-3.62.22-7.27.21-10.9,0-.78-.04-1.5-1.22-2.24-1.88.8-.7,1.51-1.84,2.41-2,1.76-.32,3.62-.09,5.44-.09h0Z"/>
  </g>
</svg>