<?xml version="1.0" encoding="UTF-8"?>
<svg id="Calque_1" xmlns="http://www.w3.org/2000/svg" viewBox="0 0 64 64">
  <defs>
    <style>
      .cls-1 {
        fill: #fff;
      }
    </style>
  </defs>
  <g>
    <path class="cls-1" d="M42.11,47.34h-20.24c1.06-8.11,2.1-16.02,3.17-24.19h13.9c1.05,8.05,2.1,16.04,3.17,24.19Z"/>
    <path class="cls-1" d="M14.43,59.65c-.22-3.99,1.18-5.78,4.78-5.81,8.46-.08,16.93-.08,25.39,0,3.75.04,5.12,1.71,4.98,5.81H14.43Z"/>
    <path class="cls-1" d="M45.28,52.04h-26.53c-.1-2.49,1.37-3.21,3.23-3.22,6.64-.05,13.28-.03,19.92.02,1.89.01,3.29.75,3.38,3.2Z"/>
    <path class="cls-1" d="M20.15,4.35v11.66s-.79,5.31,5.38,4.2,12.27-.11,12.27-.11c0,0,5.6,1.33,5.87-4.47.27-5.8,0-10.98,0-10.98l-4.38-.06c-.58,0-1.05.46-1.06,1.04v1.84c-.02.66-.24,1.31-.67,1.81s-1.1.82-1.84-.06c-.42-.5-.62-1.15-.62-1.81v-1.94c0-.49-.39-.88-.87-.88h-4.6c-.57,0-1.03.46-1.03,1.03v2.05c0,.75-.29,1.49-.86,1.98-.46.4-1.06.57-1.64-.21-.36-.48-.52-1.07-.52-1.67v-2.47c0-.53-.43-.97-.96-.97h-4.48Z"/>
  </g>
  <g>
    <path class="cls-1" d="M45.41,47.25h-26.85c1.41-8.07,2.79-15.94,4.21-24.07h18.44c1.4,8.01,2.79,15.95,4.2,24.07Z"/>
    <path class="cls-1" d="M8.69,59.5c-.29-3.97,1.56-5.74,6.34-5.78,11.23-.08,22.46-.08,33.69,0,4.97.04,6.79,1.7,6.61,5.78H8.69Z"/>
    <path class="cls-1" d="M49.62,51.94H14.42c-.13-2.48,1.82-3.19,4.28-3.21,8.81-.05,17.62-.03,26.43.02,2.5.01,4.37.75,4.49,3.19Z"/>
    <path class="cls-1" d="M16.28,4.5v11.6s-1.05,5.28,7.14,4.18,16.27-.11,16.27-.11c0,0,7.43,1.32,7.79-4.45.36-5.77,0-10.92,0-10.92l-5.81-.06c-.77,0-1.39.46-1.4,1.04l-.02,1.83c0,.66-.29,1.31-.87,1.8s-1.46.82-2.44-.06c-.56-.5-.82-1.15-.82-1.8v-1.93c0-.48-.52-.88-1.16-.88h-6.1c-.75,0-1.36.46-1.36,1.03v2.04c0,.75-.39,1.49-1.14,1.97-.61.4-1.4.57-2.18-.21-.47-.47-.69-1.07-.69-1.66v-2.45c0-.53-.57-.96-1.27-.96h-5.94Z"/>
  </g>
</svg>