<?xml version="1.0" encoding="UTF-8"?>
<svg id="Calque_1" data-name="Calque 1" xmlns="http://www.w3.org/2000/svg" viewBox="0 0 64 64">
  <defs>
    <style>
      .cls-1 {
        fill: #fff;
      }
    </style>
  </defs>
  <path class="cls-1" d="M49.55,59.48H13.91c-.35-4.07,1.1-5.92,4.86-5.95,8.66-.08,17.32-.06,25.97.02,3.71.04,5.21,1.95,4.81,5.93Z"/>
  <path class="cls-1" d="M45.36,51.9h-27.14c-.1-2.53,1.4-3.25,3.3-3.27,6.79-.06,13.58-.03,20.38.02,1.93.02,3.37.76,3.46,3.25Z"/>
  <path class="cls-1" d="M42.95,47.37h-22.25c4.19-2.63,6.09-5.31,5.74-8.13h10.58c-.03,2.78,1.58,5.49,5.93,8.13Z"/>
  <path class="cls-1" d="M31.92,38.12c-2.75,0-5.52.23-8.22-.11-1.06-.13-1.97-1.54-2.94-2.36.89-.92,1.74-2.61,2.67-2.65,5.87-.26,11.76-.25,17.64-.05.88.03,2.53,1.76,2.39,2.37-.25,1.07-1.53,2.54-2.53,2.66-2.97.35-6,.13-9.01.13Z"/>
  <path class="cls-1" d="M13.06,13.19c2.26,1.21,4.51,2.41,6.77,3.62.96.52,1.93,1.03,2.93,1.57,3.07-4.61,6.14-9.21,9.24-13.86,3.1,4.64,6.16,9.24,9.24,13.86,3.22-1.73,6.43-3.45,9.71-5.21-.98,3.38-1.94,6.68-2.9,10h-10.47v2.21h9.84c-.42,1.51-.84,2.96-1.25,4.43h-28.34c-.41-1.45-.82-2.91-1.25-4.41h9.84v-2.22h-10.47c-.2-.69-.4-1.37-.6-2.05-.74-2.55-1.48-5.09-2.22-7.64-.02-.06-.05-.11-.08-.16,0-.05,0-.1,0-.15ZM28.67,20.88c0,1.19.33,2.32.92,3.15,1.24,1.75,3.37,1.81,4.71.14,1.35-1.68,1.35-4.74,0-6.42-1.35-1.69-3.49-1.62-4.73.16-.64.91-.86,1.94-.9,2.97Z"/>
  <path class="cls-1" d="M41.96,15.48c-.76-1.14-1.5-2.25-2.26-3.38,1.32-1.54,2.63-3.07,3.99-4.66.15.66.29,1.25.42,1.84.31,1.4.62,2.81.92,4.21.02.11-.01.32-.09.36-.98.55-1.98,1.09-2.99,1.63Z"/>
  <path class="cls-1" d="M20.29,7.44c1.37,1.6,2.68,3.13,4,4.66-.76,1.14-1.5,2.25-2.26,3.38-1-.54-1.99-1.07-2.96-1.61-.08-.04-.16-.2-.15-.28.44-2.02.9-4.04,1.37-6.15Z"/>
  <path class="cls-1" d="M30.88,20.95c-.01-.6.09-1.18.39-1.7.4-.69,1.06-.71,1.42,0,.59,1.13.59,2.3,0,3.43-.36.69-1,.68-1.4,0-.32-.53-.42-1.12-.41-1.73Z"/>
</svg>