<?xml version="1.0" encoding="UTF-8"?>
<svg id="Calque_1" xmlns="http://www.w3.org/2000/svg" viewBox="0 0 64 64">
  <defs>
    <style>
      .cls-1 {
        fill: #fff;
      }
    </style>
  </defs>
  <g>
    <path class="cls-1" d="M38.52,51.99h-12.86c2.51-8.73,3.56-17.58,3.36-26.72h6.04c-.1,9.05.81,17.97,3.46,26.72Z"/>
    <path class="cls-1" d="M20.65,59.8c-.02-2.56.85-3.65,3.1-3.67,5.5-.06,11.01-.06,16.52,0,2.18.02,3.11,1.17,3.08,3.68h-22.7Z"/>
    <path class="cls-1" d="M26,12.23h11.97c-.77,2.27-1.45,4.41-2.24,6.51-.14.37-.7.81-1.08.83-1.75.09-3.5.1-5.24,0-.42-.03-1.02-.53-1.18-.95-.78-2.04-1.45-4.12-2.22-6.39Z"/>
    <path class="cls-1" d="M40.51,55.1h-17.02c-.09-1.51.77-2.08,1.97-2.09,4.34-.04,8.68-.01,13.02.02,1.28,0,2.04.61,2.03,2.07Z"/>
    <path class="cls-1" d="M32,24.11c-1.3,0-2.59,0-3.89,0-1.2,0-1.79-.61-1.78-1.8.01-1.23.68-1.71,1.86-1.7,2.53.02,5.06.01,7.59,0,1.15,0,1.87.43,1.88,1.68,0,1.32-.7,1.85-1.96,1.83-1.23-.02-2.46,0-3.7,0h0Z"/>
    <path class="cls-1" d="M29.79,11.29h4.36l-1.19-2.98c-.07-.17-.01-.36.13-.48l1.15-.86c.19-.14.22-.42.06-.59l-1.82-2.04c-.16-.18-.43-.18-.59-.01l-1.99,2.05c-.17.18-.15.46.05.61l1.11.84c.15.12.21.32.12.5l-1.39,2.98Z"/>
  </g>
  <g>
    <path class="cls-1" d="M49.55,59.48H13.91c-.35-4.07,1.1-5.92,4.86-5.95,8.66-.08,17.32-.06,25.97.02,3.71.04,5.21,1.95,4.81,5.93Z"/>
    <path class="cls-1" d="M45.36,51.9h-27.14c-.1-2.53,1.4-3.25,3.3-3.27,6.79-.06,13.58-.03,20.38.02,1.93.02,3.37.76,3.46,3.25Z"/>
    <path class="cls-1" d="M42.95,47.37h-22.25c4.19-2.63,6.09-5.31,5.74-8.13h10.58c-.03,2.78,1.58,5.49,5.93,8.13Z"/>
    <path class="cls-1" d="M31.92,38.12c-2.75,0-5.52.23-8.22-.11-1.06-.13-1.97-1.54-2.94-2.36.89-.92,1.74-2.61,2.67-2.65,5.87-.26,11.76-.25,17.64-.05.88.03,2.53,1.76,2.39,2.37-.25,1.07-1.53,2.54-2.53,2.66-2.97.35-6,.13-9.01.13Z"/>
    <path class="cls-1" d="M13.06,13.19c2.26,1.21,4.51,2.41,6.77,3.62.96.52,1.93,1.03,2.93,1.57,3.07-4.61,6.14-9.21,9.24-13.86,3.1,4.64,6.16,9.24,9.24,13.86,3.22-1.73,6.43-3.45,9.71-5.21-.98,3.38-1.94,6.68-2.9,10h-10.47v2.21h9.84c-.42,1.51-.84,2.96-1.25,4.43h-28.34c-.41-1.45-.82-2.91-1.25-4.41h9.84v-2.22h-10.47c-.2-.69-.4-1.37-.6-2.05-.74-2.55-1.48-5.09-2.22-7.64-.02-.06-.05-.11-.08-.16,0-.05,0-.1,0-.15ZM28.67,20.88c0,1.19.33,2.32.92,3.15,1.24,1.75,3.37,1.81,4.71.14,1.35-1.68,1.35-4.74,0-6.42-1.35-1.69-3.49-1.62-4.73.16-.64.91-.86,1.94-.9,2.97Z"/>
    <path class="cls-1" d="M41.96,15.48c-.76-1.14-1.5-2.25-2.26-3.38,1.32-1.54,2.63-3.07,3.99-4.66.15.66.29,1.25.42,1.84.31,1.4.62,2.81.92,4.21.02.11-.01.32-.09.36-.98.55-1.98,1.09-2.99,1.63Z"/>
    <path class="cls-1" d="M20.29,7.44c1.37,1.6,2.68,3.13,4,4.66-.76,1.14-1.5,2.25-2.26,3.38-1-.54-1.99-1.07-2.96-1.61-.08-.04-.16-.2-.15-.28.44-2.02.9-4.04,1.37-6.15Z"/>
    <path class="cls-1" d="M28.67,20.88c.04-1.03.27-2.07.9-2.97,1.24-1.77,3.38-1.85,4.73-.16,1.34,1.68,1.34,4.74,0,6.42-1.34,1.68-3.47,1.61-4.71-.14-.59-.83-.93-1.96-.92-3.15ZM30.88,20.95c-.01.61.09,1.2.41,1.73.4.67,1.04.68,1.4,0,.59-1.13.59-2.3,0-3.43-.37-.7-1.02-.69-1.42,0-.3.52-.41,1.1-.39,1.7Z"/>
    <path class="cls-1" d="M30.88,20.95c-.01-.6.09-1.18.39-1.7.4-.69,1.06-.71,1.42,0,.59,1.13.59,2.3,0,3.43-.36.69-1,.68-1.4,0-.32-.53-.42-1.12-.41-1.73Z"/>
  </g>
</svg>