<?xml version="1.0" encoding="UTF-8"?>
<!DOCTYPE svg PUBLIC "-//W3C//DTD SVG 1.1//EN" "http://www.w3.org/Graphics/SVG/1.1/DTD/svg11.dtd">
<svg xmlns="http://www.w3.org/2000/svg" version="1.1" width="267px" height="267px" style="shape-rendering:geometricPrecision; text-rendering:geometricPrecision; image-rendering:optimizeQuality; fill-rule:evenodd; clip-rule:evenodd" xmlns:xlink="http://www.w3.org/1999/xlink">
<g><path style="opacity:0.983" fill="#020303" d="M 157.5,16.5 C 160.518,16.3354 163.518,16.502 166.5,17C 161.688,21.1009 159.855,26.2676 161,32.5C 176.663,52.476 190.329,73.8094 202,96.5C 203.686,105.654 199.853,110.654 190.5,111.5C 172.711,106.4 155.045,101.233 137.5,96C 147.389,106.552 157.223,117.052 167,127.5C 182.382,146.449 187.049,167.782 181,191.5C 177.624,196.188 172.957,198.521 167,198.5C 141.522,197.523 116.022,197.189 90.5,197.5C 92.3645,187.268 91.5311,177.268 88,167.5C 81.0804,155.996 74.4138,144.329 68,132.5C 56.0992,101.366 59.0992,71.6994 77,43.5C 85.7831,31.3559 97.6165,24.1892 112.5,22C 127.634,20.0423 142.634,18.2089 157.5,16.5 Z"/></g>
<g><path style="opacity:0.936" fill="#020303" d="M 86.5,202.5 C 117.168,202.333 147.835,202.5 178.5,203C 187.295,203.722 191.628,208.555 191.5,217.5C 152.5,217.5 113.5,217.5 74.5,217.5C 74.1978,208.822 78.1978,203.822 86.5,202.5 Z"/></g>
<g><path style="opacity:0.979" fill="#020303" d="M 72.5,223.5 C 112.501,223.333 152.501,223.5 192.5,224C 201.757,224.592 207.257,229.425 209,238.5C 209.499,242.152 209.665,245.818 209.5,249.5C 158.5,249.5 107.5,249.5 56.5,249.5C 53.7972,235.528 59.1305,226.862 72.5,223.5 Z"/></g>
</svg>
