<?xml version="1.0" encoding="UTF-8"?>
<!DOCTYPE svg PUBLIC "-//W3C//DTD SVG 1.1//EN" "http://www.w3.org/Graphics/SVG/1.1/DTD/svg11.dtd">
<svg xmlns="http://www.w3.org/2000/svg" version="1.1" width="267px" height="267px" style="shape-rendering:geometricPrecision; text-rendering:geometricPrecision; image-rendering:optimizeQuality; fill-rule:evenodd; clip-rule:evenodd" xmlns:xlink="http://www.w3.org/1999/xlink">
<g><path style="opacity:0.909" fill="#020303" d="M 131.5,15.5 C 133.827,15.2471 135.827,15.9137 137.5,17.5C 143.288,24.9103 148.955,32.4103 154.5,40C 140.164,39.3569 125.83,39.3569 111.5,40C 117.683,31.3294 124.349,23.1627 131.5,15.5 Z"/></g>
<g><path style="opacity:0.952" fill="#020303" d="M 108.5,46.5 C 116.503,48.8751 124.67,50.5417 133,51.5C 141.019,50.5323 148.852,49.0323 156.5,47C 157.804,47.804 158.471,48.9707 158.5,50.5C 155.828,59.6832 152.661,68.6832 149,77.5C 148.25,78.1258 147.416,78.6258 146.5,79C 137.167,79.6667 127.833,79.6667 118.5,79C 116.622,77.4571 115.122,75.6238 114,73.5C 111.667,66.5 109.333,59.5 107,52.5C 106.252,50.1599 106.752,48.1599 108.5,46.5 Z"/></g>
<g><path style="opacity:0.938" fill="#020303" d="M 113.5,82.5 C 126.504,82.3334 139.504,82.5001 152.5,83C 160.616,88.4531 160.282,93.4531 151.5,98C 138.833,98.6667 126.167,98.6667 113.5,98C 110.605,96.0598 108.272,93.5598 106.5,90.5C 108.169,87.1697 110.502,84.5031 113.5,82.5 Z"/></g>
<g><path style="opacity:0.969" fill="#020303" d="M 118.5,102.5 C 128.167,102.5 137.833,102.5 147.5,102.5C 146.522,140.654 151.522,177.987 162.5,214.5C 142.833,214.5 123.167,214.5 103.5,214.5C 114.235,177.956 119.235,140.622 118.5,102.5 Z"/></g>
<g><path style="opacity:0.972" fill="#020303" d="M 97.5,218.5 C 120.502,218.333 143.502,218.5 166.5,219C 170.608,220.812 172.608,223.979 172.5,228.5C 146.167,228.5 119.833,228.5 93.5,228.5C 92.7494,224.18 94.0827,220.847 97.5,218.5 Z"/></g>
<g><path style="opacity:0.967" fill="#020303" d="M 111.5,231.5 C 133.518,231.25 155.518,231.75 177.5,233C 183.648,236.669 186.315,242.169 185.5,249.5C 150.5,249.5 115.5,249.5 80.5,249.5C 79.393,241.97 82.0597,236.47 88.5,233C 96.3443,232.829 104.011,232.329 111.5,231.5 Z"/></g>
</svg>
