<?xml version="1.0" encoding="UTF-8"?>
<!DOCTYPE svg PUBLIC "-//W3C//DTD SVG 1.1//EN" "http://www.w3.org/Graphics/SVG/1.1/DTD/svg11.dtd">
<svg xmlns="http://www.w3.org/2000/svg" version="1.1" width="267px" height="267px" style="shape-rendering:geometricPrecision; text-rendering:geometricPrecision; image-rendering:optimizeQuality; fill-rule:evenodd; clip-rule:evenodd" xmlns:xlink="http://www.w3.org/1999/xlink">
<g><path style="opacity:0.953" fill="#020303" d="M 129.5,15.5 C 135.007,14.1053 138.507,16.1053 140,21.5C 140.201,29.0963 142.201,36.0963 146,42.5C 146.667,45.8333 146.667,49.1667 146,52.5C 143.726,56.7136 141.726,61.0469 140,65.5C 138.164,74.465 139.83,75.465 145,68.5C 147.412,63.3413 150.079,58.3413 153,53.5C 155.888,59.2773 158.221,65.2773 160,71.5C 161.426,76.7566 160.259,81.2566 156.5,85C 140.901,86.6196 125.234,86.953 109.5,86C 107.667,85.5 106.5,84.3333 106,82.5C 105.404,77.1202 105.738,71.7869 107,66.5C 112.333,56.5 117.667,46.5 123,36.5C 123.615,31.0941 124.615,25.7608 126,20.5C 126.257,18.0935 127.424,16.4268 129.5,15.5 Z"/></g>
<g><path style="opacity:0.946" fill="#020303" d="M 109.5,90.5 C 125.17,90.3334 140.837,90.5001 156.5,91C 163.059,95.2451 163.059,99.5784 156.5,104C 140.833,104.667 125.167,104.667 109.5,104C 106.821,102.654 104.821,100.654 103.5,98C 105.32,95.3478 107.32,92.8478 109.5,90.5 Z"/></g>
<g><path style="opacity:0.977" fill="#020303" d="M 116.5,109.5 C 127.167,109.5 137.833,109.5 148.5,109.5C 147.854,143.599 153.52,176.599 165.5,208.5C 143.508,209.666 121.508,209.833 99.5,209C 112.088,177.058 117.755,143.892 116.5,109.5 Z"/></g>
<g><path style="opacity:0.923" fill="#020303" d="M 124.5,213.5 C 140.167,213.92 155.834,214.42 171.5,215C 175.125,217.071 177.125,220.237 177.5,224.5C 147.841,225.5 118.174,225.833 88.5,225.5C 87.984,220.848 89.6507,217.348 93.5,215C 104.008,214.83 114.341,214.33 124.5,213.5 Z"/></g>
<g><path style="opacity:0.965" fill="#020303" d="M 87.5,229.5 C 117.502,229.333 147.502,229.5 177.5,230C 183.51,230.246 187.677,233.08 190,238.5C 190.936,242.114 191.436,245.78 191.5,249.5C 152.5,249.5 113.5,249.5 74.5,249.5C 72.902,238.644 77.2353,231.977 87.5,229.5 Z"/></g>
</svg>
