<?xml version="1.0" encoding="UTF-8"?>
<!DOCTYPE svg PUBLIC "-//W3C//DTD SVG 1.1//EN" "http://www.w3.org/Graphics/SVG/1.1/DTD/svg11.dtd">
<svg xmlns="http://www.w3.org/2000/svg" version="1.1" width="267px" height="267px" style="shape-rendering:geometricPrecision; text-rendering:geometricPrecision; image-rendering:optimizeQuality; fill-rule:evenodd; clip-rule:evenodd" xmlns:xlink="http://www.w3.org/1999/xlink">
<g><path style="opacity:0.976" fill="#020303" d="M 127.5,15.5 C 155.075,15.2556 170.075,28.7556 172.5,56C 172.958,63.1857 170.958,69.519 166.5,75C 163.789,76.2197 160.956,77.0531 158,77.5C 141,76.1667 124,76.1667 107,77.5C 99.3492,76.5159 95.0159,72.1826 94,64.5C 90.892,38.1479 102.059,21.8146 127.5,15.5 Z"/></g>
<g><path style="opacity:0.937" fill="#020303" d="M 110.5,81.5 C 125.492,82.477 140.492,82.6437 155.5,82C 162.282,83.2284 167.615,86.7284 171.5,92.5C 168.647,96.1868 165.314,99.3535 161.5,102C 142.167,104 122.833,104 103.5,102C 99.9403,99.3953 96.9403,96.2286 94.5,92.5C 98.3217,86.3 103.655,82.6334 110.5,81.5 Z"/></g>
<g><path style="opacity:0.974" fill="#020303" d="M 113.5,109.5 C 126.413,109.178 139.246,109.511 152,110.5C 157.344,139.072 162.844,167.572 168.5,196C 144.826,196.833 121.16,196.666 97.5,195.5C 103.264,166.914 108.598,138.247 113.5,109.5 Z"/></g>
<g><path style="opacity:0.938" fill="#020303" d="M 82.5,202.5 C 115.835,202.333 149.168,202.5 182.5,203C 189.645,205.104 192.979,209.938 192.5,217.5C 152.833,217.5 113.167,217.5 73.5,217.5C 73.2131,210.39 76.2131,205.39 82.5,202.5 Z"/></g>
<g><path style="opacity:0.984" fill="#020303" d="M 70.5,223.5 C 112.168,223.333 153.835,223.5 195.5,224C 203.22,225.386 208.053,229.886 210,237.5C 211.015,241.44 211.515,245.44 211.5,249.5C 159.167,249.5 106.833,249.5 54.5,249.5C 52.8068,236.176 58.1401,227.51 70.5,223.5 Z"/></g>
</svg>
