<?xml version="1.0" encoding="UTF-8"?>
<!DOCTYPE svg PUBLIC "-//W3C//DTD SVG 1.1//EN" "http://www.w3.org/Graphics/SVG/1.1/DTD/svg11.dtd">
<svg xmlns="http://www.w3.org/2000/svg" version="1.1" width="267px" height="267px" style="shape-rendering:geometricPrecision; text-rendering:geometricPrecision; image-rendering:optimizeQuality; fill-rule:evenodd; clip-rule:evenodd" xmlns:xlink="http://www.w3.org/1999/xlink">
<g><path style="opacity:0.901" fill="#020303" d="M 131.5,16.5 C 135.826,17.2803 139.326,19.6136 142,23.5C 142.667,25.1667 142.667,26.8333 142,28.5C 140.478,30.0218 138.978,31.5218 137.5,33C 139.069,37.2065 140.735,41.3732 142.5,45.5C 136.202,46.4963 129.868,46.8297 123.5,46.5C 125.007,41.9771 126.674,37.4771 128.5,33C 127.396,31.1796 125.896,29.6796 124,28.5C 123.333,27.1667 123.333,25.8333 124,24.5C 126.705,21.9638 129.205,19.2971 131.5,16.5 Z"/></g>
<g><path style="opacity:0.955" fill="#020303" d="M 107.5,49.5 C 124.513,49.1672 141.513,49.5005 158.5,50.5C 155.295,60.2812 151.795,69.9479 148,79.5C 147.25,80.1258 146.416,80.6258 145.5,81C 137.167,81.6667 128.833,81.6667 120.5,81C 119.069,80.5348 117.903,79.7014 117,78.5C 113.327,68.9815 110.16,59.3148 107.5,49.5 Z"/></g>
<g><path style="opacity:0.91" fill="#020303" d="M 112.5,84.5 C 125.837,84.3334 139.171,84.5001 152.5,85C 157.299,88.0711 158.465,92.2378 156,97.5C 154.829,98.8932 153.329,99.7265 151.5,100C 138.833,100.667 126.167,100.667 113.5,100C 108.776,97.5647 107.276,93.7314 109,88.5C 109.69,86.6498 110.856,85.3164 112.5,84.5 Z"/></g>
<g><path style="opacity:0.963" fill="#020303" d="M 119.5,104.5 C 128.5,104.5 137.5,104.5 146.5,104.5C 145.507,142.889 150.174,180.556 160.5,217.5C 142.155,217.833 123.821,217.5 105.5,216.5C 116.229,179.944 120.895,142.611 119.5,104.5 Z"/></g>
<g><path style="opacity:0.899" fill="#020303" d="M 101.5,220.5 C 122.169,220.333 142.836,220.5 163.5,221C 167.602,222.768 169.602,225.934 169.5,230.5C 145.167,230.5 120.833,230.5 96.5,230.5C 96.0747,226.017 97.7413,222.683 101.5,220.5 Z"/></g>
<g><path style="opacity:0.971" fill="#020303" d="M 93.5,233.5 C 119.835,233.333 146.169,233.5 172.5,234C 179.216,236.934 181.883,242.1 180.5,249.5C 148.5,249.5 116.5,249.5 84.5,249.5C 83.9639,241.88 86.9639,236.546 93.5,233.5 Z"/></g>
</svg>
