<?xml version="1.0" standalone="no"?>
<!DOCTYPE svg PUBLIC "-//W3C//DTD SVG 20010904//EN"
 "http://www.w3.org/TR/2001/REC-SVG-20010904/DTD/svg10.dtd">
<svg version="1.0" xmlns="http://www.w3.org/2000/svg"
 width="267.000000pt" height="267.000000pt" viewBox="0 0 267.000000 267.000000"
 preserveAspectRatio="xMidYMid meet">

<g transform="translate(0.000000,267.000000) scale(0.100000,-0.100000)"
fill="#000000" stroke="none">
<path d="M830 2213 c0 -271 1 -290 20 -321 41 -66 76 -70 360 -42 106 10 175
8 351 -11 138 -16 206 8 246 84 22 42 35 260 27 435 l-7 132 -101 0 c-66 0
-106 -4 -114 -12 -7 -7 -12 -37 -12 -68 0 -108 -60 -166 -109 -104 -17 21 -21
41 -21 93 0 39 -5 72 -12 79 -17 17 -239 17 -256 0 -7 -7 -12 -38 -12 -70 0
-76 -20 -125 -55 -134 -46 -11 -69 22 -73 108 -5 127 4 118 -122 118 l-110 0
0 -287z"/>
<path d="M1035 1698 c-2 -7 -31 -224 -65 -483 -33 -259 -63 -482 -66 -497 l-6
-28 431 0 c404 0 431 1 431 18 0 9 -29 238 -65 507 -36 270 -65 491 -65 493 0
1 -133 2 -295 2 -228 0 -297 -3 -300 -12z"/>
<path d="M842 619 c-38 -11 -72 -60 -72 -101 l0 -28 565 0 c625 0 580 -5 551
65 -30 72 -15 70 -541 72 -281 1 -483 -2 -503 -8z"/>
<path d="M735 411 c-96 -17 -138 -67 -151 -179 l-7 -62 752 0 751 0 0 49 c0
90 -33 149 -100 180 -31 14 -104 16 -620 18 -322 0 -603 -2 -625 -6z"/>
</g>
</svg>
