<?xml version="1.0" encoding="UTF-8"?>
<svg id="Calque_1" xmlns="http://www.w3.org/2000/svg" viewBox="0 0 64 64">
  <path d="M45.41,47.25h-26.85c1.41-8.07,2.79-15.94,4.21-24.07h18.44c1.4,8.01,2.79,15.95,4.2,24.07Z"/>
  <path d="M8.69,59.5c-.29-3.97,1.56-5.74,6.34-5.78,11.23-.08,22.46-.08,33.69,0,4.97.04,6.79,1.7,6.61,5.78H8.69Z"/>
  <path d="M49.62,51.94H14.42c-.13-2.48,1.82-3.19,4.28-3.21,8.81-.05,17.62-.03,26.43.02,2.5.01,4.37.75,4.49,3.19Z"/>
  <path d="M16.28,4.5v11.6s-1.05,5.28,7.14,4.18,16.27-.11,16.27-.11c0,0,7.43,1.32,7.79-4.45.36-5.77,0-10.92,0-10.92l-5.81-.06c-.77,0-1.39.46-1.4,1.04l-.02,1.83c0,.66-.29,1.31-.87,1.8s-1.46.82-2.44-.06c-.56-.5-.82-1.15-.82-1.8v-1.93c0-.48-.52-.88-1.16-.88h-6.1c-.75,0-1.36.46-1.36,1.03v2.04c0,.75-.39,1.49-1.14,1.97-.61.4-1.4.57-2.18-.21-.47-.47-.69-1.07-.69-1.66v-2.45c0-.53-.57-.96-1.27-.96h-5.94Z"/>
</svg>