<?xml version="1.0" encoding="UTF-8"?>
<svg id="Calque_1" xmlns="http://www.w3.org/2000/svg" viewBox="0 0 64 64">
  <path d="M39.13,44.95h-14.22c1.11-5.87,2.2-11.66,3.34-17.69h7.55c1.09,5.8,2.2,11.65,3.34,17.69Z"/>
  <path d="M16,55.95c.09-3.83,1.28-5.2,4.7-5.23,7.58-.07,15.15-.06,22.73,0,3.3.03,4.61,1.57,4.57,5.24h-32Z"/>
  <path d="M31.98,20.39c-1.55,0-3.12-.15-4.65.03-2.21.26-2.92-.95-3.24-2.76-.58-3.32.79-6.54,3.56-8.26,2.92-1.83,5.9-1.76,8.79,0,2.72,1.65,4.03,5.06,3.48,8.32-.32,1.88-1.15,2.94-3.28,2.71-1.54-.16-3.1-.03-4.66-.04Z"/>
  <path d="M19.98,49.24c.03-2.04,1.14-2.82,2.78-2.84,6.11-.05,12.23-.05,18.34-.02,1.75,0,2.91.8,2.99,2.86h-24.11Z"/>
  <path d="M32.09,21.68c1.73,0,3.5-.23,5.17.09.94.18,1.7,1.24,2.55,1.91-.8.69-1.57,1.93-2.42,1.98-3.62.22-7.27.21-10.9,0-.78-.04-1.5-1.22-2.24-1.88.8-.7,1.51-1.84,2.41-2,1.76-.32,3.62-.09,5.44-.09h0Z"/>
</svg>